# xmcd
#
# Track frame offsets: 
#        183
#        20653
#        35795
#        66133
#        84728
#        104080
#        138095
#        169978
#        207488
#        239280
#        272643
#
# Disc length: 4104 seconds
#
# Revision: 0
# Processed by: cddbd v1.5.2PL0 Copyright (c) Steve Scherf et al.
# Submitted via: ExactAudioCopy v1.0b3
#
DISCID=a410060b
DTITLE=Jimmy Witherspoon, Richard 'Groove' Holmes - As Blue as they ca
DTITLE=n be
DYEAR=1993
DGENRE=Blues
TTITLE0=Richard "Groove" Holmes - Groove's Groove
TTITLE1=Calafornia Blues
TTITLE2=What a wonderful World
TTITLE3=Richard "Groove" Holmes - Misty
TTITLE4=Walking on a Tightrope
TTITLE5=Slow Blues
TTITLE6=Richard "Groove" Holmes - Song for my father
TTITLE7=Odetta - My Friend
TTITLE8=Richard "Groove" Holmes - Lonesome road blues
TTITLE9=On say a Joy
TTITLE10=Danger Zone
EXTD=
EXTT0=
EXTT1=
EXTT2=
EXTT3=
EXTT4=
EXTT5=
EXTT6=
EXTT7=
EXTT8=
EXTT9=
EXTT10=
PLAYORDER=
